<?xml version="1.0" standalone="no"?>
<!DOCTYPE svg PUBLIC "-//W3C//DTD SVG 20010904//EN"
 "http://www.w3.org/TR/2001/REC-SVG-20010904/DTD/svg10.dtd">
<svg version="1.0" xmlns="http://www.w3.org/2000/svg"
 width="500.000000pt" height="500.000000pt" viewBox="0 0 500.000000 500.000000"
 preserveAspectRatio="xMidYMid meet">

<g transform="translate(0.000000,500.000000) scale(0.100000,-0.100000)"
fill="#000000" stroke="none">
<path d="M1719 4184 l-694 -694 470 -470 470 -470 -230 -230 c-126 -126 -234
-230 -240 -230 -6 0 -217 207 -470 460 -253 253 -464 460 -470 460 -16 0 -445
-434 -445 -450 0 -16 1379 -1400 1395 -1400 5 0 218 208 472 462 l463 462 232
-232 233 -232 -460 -460 c-253 -253 -461 -465 -463 -472 -1 -7 99 -114 223
-238 l225 -225 696 696 697 697 -424 423 c-232 233 -440 443 -461 465 l-39 42
226 223 c125 123 231 226 237 228 5 2 212 -199 459 -445 247 -247 455 -450
463 -452 19 -4 468 438 464 456 -2 7 -313 324 -693 703 l-690 689 -465 -465
-465 -465 -235 235 -235 235 463 462 463 461 -113 112 c-62 61 -162 162 -223
224 -60 62 -117 117 -126 121 -12 7 -168 -144 -710 -686z"/>
</g>
</svg>
